inDegrees=yes
name=ik_lifting_orientations
DataType=double
version=3
OpenSimVersion=4.5-2024-01-10-34fd6af
endheader
time	pelvis_tilt	pelvis_list	pelvis_rotation	pelvis_tx	pelvis_ty	pelvis_tz	hip_flexion_r	hip_adduction_r	hip_rotation_r	knee_angle_r	knee_angle_r_beta	ankle_angle_r	subtalar_angle_r	mtp_angle_r	hip_flexion_l	hip_adduction_l	hip_rotation_l	knee_angle_l	knee_angle_l_beta	ankle_angle_l	subtalar_angle_l	mtp_angle_l	lumbar_extension	lumbar_bending	lumbar_rotation	arm_flex_r	arm_add_r	arm_rot_r	elbow_flex_r	pro_sup_r	wrist_flex_r	wrist_dev_r	arm_flex_l	arm_add_l	arm_rot_l	elbow_flex_l	pro_sup_l	wrist_flex_l	wrist_dev_l
0.02	0.00151654769336465	0.002502342109123579	-90.00283414017709	0	0.9399999998679526	0	43.87098539286693	-16.94412383583624	0	59.24727210912213	1.034059971129186	-9.165439305564421	0	0	43.87098539286693	-16.94412383583624	0	59.24727210912213	1.034059971129186	-9.165439305564421	0	0	0.0009177900371956794	-0.001091214502169549	0.004127371274763752	-0.2389907139766358	-0.05271068589258242	-0.007701841341802912	0.5030467014895128	5.317200870581648	0	0	0	-7.21245674438593	0	84.77060405869547	5.317200870581648	0	0
0.03	-0.03030037206471213	-0.02729371607831059	-90.0385818592143	0	0.9399999998679526	0	43.89247236061102	-16.5377608286525	0	59.25862517602888	1.034258119526908	-8.866826767353405	0	0	43.89247236061102	-16.5377608286525	0	59.25862517602888	1.034258119526908	-8.866826767353405	0	0	-0.05798717892122927	0.05810930807560626	0.06568293970917832	-0.2133343245962122	-0.067671073433637	-0.05247168961382365	0.4707111781315986	5.245311783498493	0	0	0	-7.290912511905311	0	84.84129685574362	5.245311783498493	0	0
0.04	-0.03162673994017297	-0.03908207579979486	-89.96153023055949	0	0.9399999998679526	0	43.91281780922585	-16.16974364215276	0	59.26942058923558	1.034446535031478	-8.600087473605667	0	0	43.91281780922585	-16.16974364215276	0	59.26942058923558	1.034446535031478	-8.600087473605667	0	0	-0.1071748421263404	0.09344704985665826	0.0252683639804635	-0.1867991977258988	-0.08943797686826888	-0.1121492974024749	0.4566337975637474	5.1768473828071	0	0	0	-7.365902173704383	0	84.90862223678286	5.1768473828071	0	0
0.05	-0.02620155447242407	-0.04040931793879269	-89.95847886712102	0	0.9399999998679526	0	43.91291740912137	-16.16772419994864	0	59.2694731853911	1.034447453007566	-8.598571019543094	0	0	43.91291740912137	-16.16772419994864	0	59.2694731853911	1.034447453007566	-8.598571019543094	0	0	-0.1148626413035768	0.1017867301881674	0.009471659837549324	-0.2375998070297137	-0.1147002351511626	-0.1549001344814025	0.4781546402101562	5.176516275879184	0	0	0	-7.366262280561575	0	84.90894783198081	5.176516275879184	0	0
0.06	-0.06554828159235773	-0.06509579676306725	-90.00039162047082	0	0.9399999998679526	0	43.93919736136017	-15.70054345368161	0	59.28343829501074	1.034691190150831	-8.262283436548698	0	0	43.93919736136017	-15.70054345368161	0	59.28343829501074	1.034691190150831	-8.262283436548698	0	0	-0.1577237242438342	0.158474999493222	0.03614167680690455	-0.218782293886274	-0.1543497180058859	-0.1880755346262706	0.4702911034332889	5.087899102652738	0	0	0	-7.463448032954504	0	84.99609082094274	5.087899102652738	0	0
0.07000000000000001	-0.06724869612915249	-0.06959856901183158	-89.96807036326645	0	0.9399999998679526	0	43.97711936690575	-15.10342548494523	0	59.30381888280507	1.035046898511334	-7.848523655884643	0	0	43.97711936690575	-15.10342548494523	0	59.30381888280507	1.035046898511334	-7.848523655884643	0	0	-0.1941268678967698	0.1889898206752338	0.03337153374150356	-0.2068017731360167	-0.1981653416038323	-0.2295749832320886	0.4485893760908725	4.958021378476944	0	0	0	-7.607274474323873	0	85.12380937410941	4.958021378476944	0	0
0.08	-0.06380000555418985	-0.06822146396240511	-89.93821178522896	0	0.9399999998679526	0	44.00451888131671	-14.68722364120879	0	59.31859989715819	1.03530487587858	-7.563421980491003	0	0	44.00451888131671	-14.68722364120879	0	59.31859989715819	1.03530487587858	-7.563421980491003	0	0	-0.2203054730265124	0.2168338452658542	0.0352730018276281	-0.1797426803254648	-0.2039586401415485	-0.2943519529129658	0.4320523529985601	4.863690273837068	0	0	0	-7.712082250214151	0	85.21657255063444	4.863690273837068	0	0
0.09	-0.08721489568222601	-0.1103636517241828	-89.90287225788801	0	0.9399999998679526	0	44.00459591191117	-14.68594444024298	0	59.31864140337412	1.035305600298708	-7.562517794182052	0	0	44.00459591191117	-14.68594444024298	0	59.31864140337412	1.035305600298708	-7.562517794182052	0	0	-0.2356846298568714	0.2365258987148724	0.04762202994944306	-0.2403054027661755	-0.1960614398771639	-0.3443156410631273	0.4256883460852623	4.863427437194463	0	0	0	-7.712372849992506	0	85.21683101676027	4.863427437194463	0	0
0.1	-0.0906867902081544	-0.102423682058128	-89.88971846165735	0	0.9399999998679526	0	44.00471112144663	-14.68402363636527	0	59.31870331005106	1.03530668077405	-7.56115901769052	0	0	44.00471112144663	-14.68402363636527	0	59.31870331005106	1.03530668077405	-7.56115901769052	0	0	-0.2646667389131538	0.2642128735665659	0.07213398379581458	-0.2556572149884177	-0.2325459675666393	-0.4427550256848218	0.4367118671668458	4.863034748170621	0	0	0	-7.712806636155531	0	85.2172171758379	4.863034748170621	0	0
